<svg width="48" height="48" viewBox="0 0 48 48" fill="none" xmlns="http://www.w3.org/2000/svg">
<path d="M29.4 12.6C29.0336 12.9739 28.8283 13.4765 28.8283 14C28.8283 14.5235 29.0336 15.0261 29.4 15.4L32.6 18.6C32.9739 18.9665 33.4765 19.1717 34 19.1717C34.5235 19.1717 35.0262 18.9665 35.4 18.6L42.94 11.06C43.9457 13.2824 44.2502 15.7585 43.8129 18.1583C43.3757 20.5581 42.2174 22.7677 40.4926 24.4926C38.7677 26.2174 36.5581 27.3757 34.1583 27.8129C31.7585 28.2502 29.2824 27.9457 27.06 26.94L13.24 40.76C12.4444 41.5556 11.3652 42.0026 10.24 42.0026C9.1148 42.0026 8.03567 41.5556 7.24002 40.76C6.44437 39.9643 5.99738 38.8852 5.99738 37.76C5.99738 36.6348 6.44437 35.5556 7.24002 34.76L21.06 20.94C20.0543 18.7176 19.7498 16.2415 20.1871 13.8417C20.6244 11.4419 21.7826 9.23231 23.5075 7.50744C25.2323 5.78257 27.4419 4.62434 29.8417 4.18708C32.2415 3.74983 34.7176 4.05433 36.94 5.06L29.4 12.6Z" stroke="#1E1E1E" stroke-width="4" stroke-linecap="round" stroke-linejoin="round"/>
</svg>
